<svg width="276" height="248" viewBox="0 0 276 248" fill="none" xmlns="http://www.w3.org/2000/svg">
<mask id="mask0_167_2107" style="mask-type:alpha" maskUnits="userSpaceOnUse" x="3" y="0" width="273" height="248">
<path d="M268.842 0.0419584L6.80382 8.74621L8.92743 136.506C8.9983 140.769 5.65811 209.879 3.97915 243.902L40.3645 247.084C68.0146 245.175 125.448 241.434 133.982 241.741C142.516 242.048 231.623 230.859 275.11 225.227C275.11 225.227 271.422 113.111 269.842 60.2053L268.842 0.0419584Z" fill="#FDCB1F"/>
<path d="M268.842 0.0419584L6.80382 8.74621L8.92743 136.506C8.9983 140.769 5.65811 209.879 3.97915 243.902L40.3645 247.084C68.0146 245.175 125.448 241.434 133.982 241.741C142.516 242.048 231.623 230.859 275.11 225.227C275.11 225.227 271.422 113.111 269.842 60.2053L268.842 0.0419584Z" fill="url(#paint0_linear_167_2107)"/>
</mask>
<g mask="url(#mask0_167_2107)">
<path d="M268.842 0.0419584L6.80382 8.74621L8.92743 136.506C8.9983 140.769 5.65811 209.879 3.97915 243.902L40.3645 247.084C68.0146 245.175 125.448 241.434 133.982 241.741C142.516 242.048 231.623 230.859 275.11 225.227C275.11 225.227 271.422 113.111 269.842 60.2053L268.842 0.0419584Z" fill="#FDCB1F"/>
<path d="M268.842 0.0419584L6.80382 8.74621L8.92743 136.506C8.9983 140.769 5.65811 209.879 3.97915 243.902L40.3645 247.084C68.0146 245.175 125.448 241.434 133.982 241.741C142.516 242.048 231.623 230.859 275.11 225.227C275.11 225.227 271.422 113.111 269.842 60.2053L268.842 0.0419584Z" fill="url(#paint1_linear_167_2107)"/>
<path opacity="0.5" d="M268.842 0.0419584L6.80382 8.74621L8.92743 136.506C8.9983 140.769 5.65811 209.879 3.97915 243.902L40.3645 247.084C68.0146 245.175 125.448 241.434 133.982 241.741C142.516 242.048 231.623 230.859 275.11 225.227C275.11 225.227 271.422 113.111 269.842 60.2053L268.842 0.0419584Z" fill="url(#paint2_radial_167_2107)"/>
<g filter="url(#filter0_f_167_2107)">
<path d="M15.8452 206.671C18.9919 213.688 30.6353 238.455 36.0637 249.962L-5.16712 250.647L1.97381 190.769C5.2865 193.146 12.6986 199.653 15.8452 206.671Z" fill="#FEDB38"/>
</g>
<g filter="url(#filter1_f_167_2107)">
<path d="M23.8468 190.125C20.7837 194.889 11.6284 197.716 7.43358 198.534L6.12817 119.999L22.8864 132.346C24.5544 134.235 28.1012 138.88 28.9443 142.345C29.9983 146.676 27.6756 184.17 23.8468 190.125Z" fill="#FEDB38"/>
</g>
<g filter="url(#filter2_f_167_2107)">
<path d="M20.7368 124.991C18.3328 130.119 9.63338 134.136 5.58415 135.503L-6.12744 57.835L12.1205 67.8495C14.0244 69.501 18.156 73.6345 19.4513 76.957C21.0705 81.1101 23.7419 118.58 20.7368 124.991Z" fill="#FED238"/>
</g>
<g opacity="0.88" filter="url(#filter3_f_167_2107)">
<path d="M154.292 12.046C149.356 12.1281 137.362 6.24866 131.983 3.29869L273.645 -6.35056L273.918 10.0576L190.811 14.8057C180.695 13.8516 159.229 11.964 154.292 12.046Z" fill="url(#paint3_linear_167_2107)"/>
</g>
<path d="M26.1381 226.7C28.9407 233.274 34.5774 244.936 37.0454 249.945L287.936 245.775C286.768 214.886 283.084 153.047 277.693 152.8C270.955 152.491 238.224 175.059 229.641 181.935C221.058 188.811 158.694 217.763 143.379 224.751C128.065 231.739 22.6348 218.482 26.1381 226.7Z" fill="url(#paint4_linear_167_2107)"/>
<g style="mix-blend-mode:lighten" filter="url(#filter4_i_167_2107)">
<path d="M268.842 0.0419584L6.80382 8.74621L8.92743 136.506C8.9983 140.769 5.65811 209.879 3.97915 243.902L40.3645 247.084C68.0146 245.175 125.448 241.434 133.982 241.741C142.516 242.048 231.623 230.859 275.11 225.227C275.11 225.227 271.422 113.111 269.842 60.2053L268.842 0.0419584Z" fill="black"/>
</g>
<path opacity="0.5" d="M-6.27258 243.23L37.9849 247.404L140.298 241.916L228.645 231.75L279.74 225.29" stroke="#FFC146" stroke-width="2.24416"/>
<g filter="url(#filter5_f_167_2107)">
<path d="M204.437 96.6276L254.659 92.0204L204.261 93.2783C204.208 93.2796 204.158 93.2946 204.114 93.324C181.799 108.206 135.965 138.52 130.626 141.076C125.318 143.616 89.1456 147.241 71.3604 148.769C71.1735 148.785 71.0605 148.967 71.1291 149.142C79.237 169.786 95.9105 210.39 98.8114 210.341L131.736 209.794C131.758 209.794 131.779 209.791 131.8 209.785L177.164 198.097C180.067 197.489 196.361 130.465 204.191 96.8379C204.218 96.7201 204.317 96.6386 204.437 96.6276Z" fill="#FFE55E"/>
</g>
<g opacity="0.75" filter="url(#filter6_f_167_2107)">
<path d="M273.865 91.2803C252.046 89.5388 206.69 87.3468 199.818 92.5111C192.946 97.6754 172.936 118.161 163.791 127.759L118.38 138.614C102.262 142.249 67.4951 147.54 57.3756 139.628" stroke="url(#paint5_linear_167_2107)" stroke-width="0.841561"/>
</g>
<g opacity="0.5" filter="url(#filter7_f_167_2107)">
<path d="M40.8358 182.603L26.5312 182.841C28.2012 182.813 27.0988 173.898 26.323 169.342C26.3113 169.273 26.3244 169.207 26.362 169.148C28.7169 165.471 34.079 157.727 37.158 155.45C40.1842 153.211 50.1565 152.813 55.1194 152.893C55.3068 152.896 55.435 153.079 55.3779 153.258L49.3672 172.052C49.3612 172.071 49.3537 172.088 49.3439 172.105C47.3375 175.607 42.8504 182.569 40.8358 182.603Z" fill="#FED639"/>
<path d="M40.8358 182.603L26.5312 182.841C28.2012 182.813 27.0988 173.898 26.323 169.342C26.3113 169.273 26.3244 169.207 26.362 169.148C28.7169 165.471 34.079 157.727 37.158 155.45C40.1842 153.211 50.1565 152.813 55.1194 152.893C55.3068 152.896 55.435 153.079 55.3779 153.258L49.3672 172.052C49.3612 172.071 49.3537 172.088 49.3439 172.105C47.3375 175.607 42.8504 182.569 40.8358 182.603Z" fill="url(#paint6_radial_167_2107)" fill-opacity="0.2"/>
</g>
<g filter="url(#filter8_f_167_2107)">
<path d="M16.4868 76.4805L5.07958 99.1149C4.96069 91.9626 3.88876 71.3593 8.28293 72.4085C12.6771 73.4577 17.2816 73.6617 16.4868 76.4805Z" fill="#FEE659"/>
</g>
<path d="M87.2148 107.02C84.7639 124.118 62.5948 131.928 51.8166 133.696C49.2469 131.39 43.8089 124.148 42.6151 113.625C41.4212 103.103 45.6889 77.2768 47.9719 65.6792C56.6188 63.1982 75.2063 58.765 80.3811 60.8791C86.8496 63.5219 90.2784 85.6473 87.2148 107.02Z" fill="url(#paint7_radial_167_2107)"/>
<g opacity="0.5" filter="url(#filter9_f_167_2107)">
<path d="M60.1243 136.216C68.6067 131.726 87.74 116.482 89.4381 110.618" stroke="#75C5FF" stroke-width="0.841561"/>
</g>
<g opacity="0.5" filter="url(#filter10_f_167_2107)">
<path d="M61.6688 136.288C71.1415 137.83 95.5974 137.228 100.491 133.579" stroke="#75C5FF" stroke-width="0.841561"/>
</g>
<g opacity="0.5" filter="url(#filter11_f_167_2107)">
<path d="M252.771 93.211C243.44 90.9654 219.007 89.7368 213.854 93.0102" stroke="url(#paint8_linear_167_2107)" stroke-width="0.841561"/>
</g>
<g filter="url(#filter12_f_167_2107)">
<path d="M223.278 94.5059L272.503 93.6877L276.61 138.228L248.836 163.66L191.415 203.051L120.013 228.366C114.363 228.88 100.858 228.824 92.0326 224.482C83.207 220.14 89.99 219.747 94.4847 220.093L111.173 219.815L123.438 214.982L177.883 173.817L202.779 110.277C207.742 105.051 218.79 94.5805 223.278 94.5059Z" fill="url(#paint9_linear_167_2107)" fill-opacity="0.5"/>
</g>
<g filter="url(#filter13_f_167_2107)">
<path d="M86.5679 216.437C93.7995 218.28 108.842 221.369 111.159 218.974C113.476 216.579 131.783 210.729 136.51 208.172" stroke="url(#paint10_linear_167_2107)" stroke-opacity="0.8" stroke-width="0.420781"/>
</g>
<g opacity="0.6" filter="url(#filter14_f_167_2107)">
<path d="M141.735 33.0163C141.707 31.3334 149.892 28.6255 153.988 27.482L168.713 27.2372C165.33 29.0703 157.675 33.2563 154.118 35.3355C149.672 37.9344 141.77 35.1199 141.735 33.0163Z" fill="#EFC04F"/>
</g>
<g opacity="0.6" filter="url(#filter15_f_167_2107)">
<path d="M110.795 43.3882C111.348 41.8168 119.074 43.8979 123.785 44.4273L128.053 48.4308C123.854 48.8175 125.902 50.5583 121.435 51.1057C115.852 51.79 110.104 45.3524 110.795 43.3882Z" fill="#EFC04F"/>
</g>
<path d="M146.901 130.222C138.644 125.914 137.372 125.155 138.228 117.31C138.602 113.883 143.355 113.615 145.567 114.742C147.927 115.944 151.246 119.25 151.571 122.067C151.635 122.624 153.116 124.838 152.757 124.106C152.165 122.9 151.571 120.342 151.571 119.009C151.571 116.098 150.111 112.814 151.571 110.211C153.097 107.49 157.085 107.798 159.28 108.437C165.596 110.275 162.644 120.853 162.644 125.759" stroke="black" stroke-width="1.33333" stroke-linecap="round"/>
<path d="M147.166 130.14C147.166 132.17 141.47 131.11 142.04 141.048C144.603 146.866 152.249 148.139 156.848 147.988C159.891 147.889 165.963 144.991 168.789 143.922C173.292 142.219 178.197 135.637 176.213 131.837C175.224 129.944 172.217 128.001 170.68 126.318C169.123 124.615 164.964 126.174 162.99 125.333" stroke="black" stroke-width="1.33333" stroke-linecap="round"/>
<path d="M153.592 132.38C152.909 132.745 151.502 133.66 152.485 134.602C153.098 135.189 153.691 134.095 153.691 133.606C153.692 132.566 152.119 132.217 152.242 133.239C152.286 133.601 152.983 134.986 153.378 134.151C153.589 133.706 153.438 132.733 152.798 133.003C152.119 133.289 153.025 134.739 153.429 133.926C153.849 133.08 152.93 132.112 152.306 133.047C151.804 133.798 152.741 135.072 153.182 134.183C153.575 133.393 153.006 132.726 152.177 133.056C151.521 133.317 151.797 135.055 152.734 134.72C153.353 134.499 153.81 132.972 153.011 132.757C152.275 132.56 151.452 132.88 151.575 133.741C151.715 134.722 153.168 134.973 153.429 133.926C153.628 133.129 153.24 131.998 152.229 132.359C151.321 132.684 150.988 134.376 151.842 134.963C152.769 135.6 153.956 134.084 153.644 133.209C153.306 132.264 151.656 132.535 151.392 133.336C151.017 134.476 152.264 135.552 153.312 134.73C154.046 134.154 153.781 132.8 152.859 132.727C151.814 132.644 150.685 133.479 151.216 134.66C151.888 136.151 153.704 134.453 153.582 133.325C153.472 132.313 152.465 131.632 151.61 132.524C150.649 133.528 150.99 135.317 152.57 135.183C153.74 135.084 154.613 133.42 153.568 132.577C152.944 132.073 151 132.556 150.827 133.387C150.548 134.728 152.839 135.867 153.648 134.695C154.294 133.756 154.006 131.767 152.567 131.909C151.241 132.04 149.635 134.072 151.131 135.105C152.614 136.129 154.275 134.172 153.874 132.722C153.495 131.349 151.333 132.173 150.894 133.1C150.15 134.671 152.203 136.249 153.468 134.928C154.621 133.724 153.688 132.044 152.155 132.151C151.434 132.2 151.104 132.638 151.095 133.348C151.082 134.457 151.486 134.857 152.487 134.978" stroke="black" stroke-width="1.33333" stroke-linecap="round"/>
<path d="M160.856 129.953C160.984 130.351 161.413 131.98 162.055 131.04C162.221 130.797 162.26 130.442 162.089 130.19C161.911 129.926 161.092 129.574 160.997 130.082C160.803 131.116 162.147 130.995 161.627 130.317C160.262 128.537 159.544 132.751 161.696 131.827C163.905 130.878 161.107 128.602 160.377 130.454C159.631 132.345 162.851 132.079 162.111 130.144C161.919 129.643 160.674 128.985 160.248 129.568C159.803 130.177 160.449 131.589 161.197 131.591C161.979 131.593 162.644 130.97 162.292 130.202C162.061 129.699 160.619 129.048 160.451 129.872C160.335 130.441 160.722 132.138 161.628 131.428C162.13 131.034 161.929 130.084 161.361 129.942" stroke="black" stroke-width="1.33333" stroke-linecap="round"/>
<path d="M154.996 136.49C159.915 139.688 160.542 136.16 161.274 134.246" stroke="black" stroke-width="1.33333" stroke-linecap="round"/>
<path d="M156.756 123.155C155.922 121.062 154.969 119.2 154.969 116.96C154.969 116.183 155.074 115.52 155.207 114.756C155.361 113.873 155.916 112.455 157.054 113.088C158.24 113.747 158.066 115.135 158.066 116.364C158.066 117.208 157.842 118.099 157.709 118.932C157.634 119.403 157.46 119.85 157.378 120.322C157.297 120.787 157.419 121.267 157.292 121.725C157.115 122.361 157.113 123.213 157.113 123.87C157.113 124.946 156.762 121.745 156.61 120.679C156.534 120.147 156.627 119.494 156.451 118.992C156.286 118.519 156.16 118.187 156.16 117.674C156.16 116.818 155.945 116.023 156.134 115.173C156.184 114.945 156.236 113.628 156.756 113.889C157.259 114.14 157.352 115.27 157.352 115.742C157.352 116.408 157.113 117.009 157.113 117.674C157.113 118.062 157.322 119.416 156.994 119.581" stroke="#FEE1E7" stroke-width="1.33333" stroke-linecap="round"/>
<path d="M148.774 126.848C147.397 126.035 145.714 125.297 144.491 124.227C144.216 123.987 143.853 123.82 143.598 123.565C143.276 123.243 143.114 122.75 142.79 122.414C141.868 121.456 140.91 120.403 140.91 118.985C140.91 118.514 140.972 118.054 141.44 117.82C142.253 117.413 142.62 118.126 143.174 118.561C143.924 119.151 144.213 119.91 144.749 120.653C145.461 121.638 146.141 122.636 146.841 123.631C147.408 124.439 148.111 125.148 148.595 126.008C148.724 126.236 148.906 126.407 149.005 126.656C149.158 127.037 148.374 126.131 148.059 125.869C147.481 125.387 146.885 124.935 146.298 124.465C145.713 123.997 145.398 123.327 144.842 122.864C144.148 122.285 143.62 121.589 142.995 120.964C142.779 120.748 141.65 118.628 142.28 118.628C142.931 118.628 143.408 119.929 143.651 120.415C144.088 121.289 144.615 122.019 145.199 122.797" stroke="#FEE1E7" stroke-width="1.33333" stroke-linecap="round"/>
<path d="M163.766 132.861C163.755 133.13 163.691 133.493 163.846 133.74C163.922 133.861 164.036 133.834 164.08 133.713C164.163 133.485 164.253 132.948 164.103 132.735C163.804 132.306 163.367 133.204 163.9 133.437C164.14 133.542 164.184 132.806 163.988 133.138C163.92 133.254 163.825 133.365 163.766 133.483" stroke="#FEE1E7" stroke-width="1.33333" stroke-linecap="round"/>
<path d="M152.057 137.291C151.792 138.92 152.624 137.37 152.136 137.37C151.757 137.37 151.689 138.119 152.057 137.843" stroke="#FEE1E7" stroke-width="1.33333" stroke-linecap="round"/>
<path d="M57.4908 105.836C58.4311 105.872 58.8831 106.27 58.8469 107.029C58.7746 107.825 58.3226 108.295 57.4908 108.439L37.0407 108.385L37.3119 123.465L54.9413 123.411C55.8454 123.519 56.2974 123.935 56.2974 124.658C56.2974 125.382 55.8454 125.797 54.9413 125.906L37.2577 126.014L37.0949 141.094L55.6465 141.203C56.4783 141.42 56.8941 141.836 56.8941 142.451C56.8941 143.138 56.4421 143.59 55.538 143.807C49.3542 143.77 44.6349 143.752 41.3802 143.752C38.1256 143.752 36.3355 143.734 36.01 143.698C35.2506 143.698 34.8528 143.246 34.8167 142.342C34.8528 141.763 34.889 140.624 34.9252 138.925C34.9613 137.225 34.9975 135.001 35.0337 132.253C35.0698 126.683 35.0156 118.764 34.8709 108.494C34.6901 107.047 34.9794 106.179 35.7388 105.89L57.4908 105.836ZM83.9078 107.571C84.0525 116.106 84.0886 122.778 84.0163 127.588C83.9802 132.397 83.8717 135.326 83.6909 136.375C83.5462 137.424 83.275 138.382 82.8772 139.25C82.4794 140.118 81.9912 140.914 81.4126 141.637C80.8701 142.36 80.2373 142.957 79.514 143.427C78.7908 143.861 77.959 144.204 77.0188 144.458C75.2106 144.964 73.2759 145.018 71.2146 144.62C69.0449 144.295 67.291 143.427 65.9529 142.017C65.2658 141.293 64.6872 140.498 64.2171 139.63C63.747 138.762 63.4035 137.785 63.1865 136.701C62.644 134.567 62.6983 132.09 63.3492 129.269C63.9278 126.521 65.4647 124.423 67.96 122.977C70.3467 121.603 72.842 121.132 75.4457 121.566C77.9409 122.037 79.9842 123.067 81.5753 124.658L81.5753 107.463C81.5753 106.197 81.9731 105.546 82.7687 105.51C83.5281 105.474 83.9078 106.161 83.9078 107.571ZM81.6838 133.392C81.8646 131.33 81.4668 129.468 80.4904 127.805C79.4779 126.069 77.8144 124.966 75.5 124.496C73.1494 123.989 71.0519 124.261 69.2076 125.309C67.3271 126.322 66.1157 128.112 65.5732 130.679C64.9585 133.319 65.2478 135.724 66.4411 137.894C67.7068 140.136 69.1895 141.474 70.8892 141.908C72.5527 142.378 74.3247 142.36 76.2051 141.854C77.9048 141.42 79.2247 140.48 80.165 139.033C80.6351 138.31 80.9786 137.496 81.1956 136.592C81.4488 135.652 81.6115 134.585 81.6838 133.392ZM93.2379 120.753C93.3102 129.793 93.6357 135.272 94.2143 137.189C94.7929 139.142 95.6065 140.516 96.6553 141.311C97.6317 142.071 98.8612 142.451 100.344 142.451C101.79 142.451 103.074 142.035 104.195 141.203C105.352 140.371 106.257 138.816 106.907 136.538C107.631 134.26 107.956 129.161 107.884 121.241C108.028 119.433 108.842 118.945 110.325 119.776C110.686 123.067 110.795 131.168 110.65 144.078C110.578 145.127 110.162 145.705 109.403 145.814C108.679 145.85 108.372 145.271 108.481 144.078C108.481 142.704 108.426 141.185 108.318 139.521C107.92 140.498 107.45 141.329 106.907 142.017C106.401 142.704 105.841 143.264 105.226 143.698C103.96 144.53 102.387 145 100.507 145.108C98.6623 145.181 96.8903 144.747 95.1907 143.807C93.5633 142.903 92.3338 141.004 91.502 138.111C91.1042 136.664 90.833 134.513 90.6884 131.656C90.5799 128.763 90.5618 125.128 90.6341 120.753C90.7788 119.596 91.267 119.017 92.0987 119.017C92.8581 119.017 93.2379 119.596 93.2379 120.753ZM138.749 105.781C139.617 105.854 140.069 106.251 140.105 106.975C140.177 107.77 139.725 108.24 138.749 108.385L119.329 108.331L119.926 124.279L135.44 124.17C136.272 124.206 136.724 124.604 136.796 125.364C136.868 126.087 136.416 126.539 135.44 126.72L119.926 126.828L119.709 142.451C119.601 143.68 119.149 144.295 118.353 144.295C117.594 144.295 117.196 143.716 117.16 142.559C117.34 136.845 117.395 131.168 117.322 125.526C117.25 119.885 117.069 114.243 116.78 108.602C116.563 106.722 116.888 105.781 117.756 105.781L138.749 105.781ZM182.123 129.54C184.727 123.935 189.229 121.223 195.63 121.404C196.498 121.44 196.95 121.801 196.986 122.489C196.986 123.14 196.534 123.537 195.63 123.682C189.519 123.863 185.324 126.792 183.045 132.47C182.756 133.265 182.521 134.549 182.34 136.321C182.159 138.057 182.051 140.263 182.015 142.939C182.015 144.06 181.689 144.638 181.038 144.675C180.315 144.747 179.845 144.277 179.628 143.264L179.411 120.536C179.303 119.27 179.61 118.565 180.333 118.42C181.093 118.239 181.617 118.764 181.906 119.993L182.123 129.54ZM207.13 120.753C207.202 129.793 207.528 135.272 208.106 137.189C208.685 139.142 209.499 140.516 210.547 141.311C211.524 142.071 212.753 142.451 214.236 142.451C215.682 142.451 216.966 142.035 218.087 141.203C219.244 140.371 220.149 138.816 220.799 136.538C221.523 134.26 221.848 129.161 221.776 121.241C221.92 119.433 222.734 118.945 224.217 119.776C224.578 123.067 224.687 131.168 224.542 144.078C224.47 145.127 224.054 145.705 223.295 145.814C222.571 145.85 222.264 145.271 222.373 144.078C222.373 142.704 222.318 141.185 222.21 139.521C221.812 140.498 221.342 141.329 220.799 142.017C220.293 142.704 219.733 143.264 219.118 143.698C217.852 144.53 216.279 145 214.399 145.108C212.554 145.181 210.782 144.747 209.083 143.807C207.455 142.903 206.226 141.004 205.394 138.111C204.996 136.664 204.725 134.513 204.58 131.656C204.472 128.763 204.454 125.128 204.526 120.753C204.671 119.596 205.159 119.017 205.991 119.017C206.75 119.017 207.13 119.596 207.13 120.753ZM232.408 126.123C232.733 124.423 233.348 123.049 234.252 122C235.192 121.132 236.277 120.717 237.507 120.753C238.121 120.789 238.664 120.952 239.134 121.241C239.64 121.494 240.074 121.874 240.436 122.38C241.123 123.465 241.647 125.092 242.009 127.262C242.19 126.286 242.425 125.382 242.714 124.55C243.003 123.718 243.383 123.013 243.853 122.434C244.794 121.205 246.186 120.699 248.03 120.915C249.947 121.132 251.393 122.525 252.37 125.092C253.418 127.696 253.744 133.934 253.346 143.807C253.346 144.638 252.948 145.072 252.153 145.108C251.321 145.108 250.941 144.476 251.014 143.21C251.411 135.76 251.194 130.661 250.363 127.913C249.531 125.056 248.536 123.61 247.379 123.573C246.222 123.501 245.264 124.586 244.504 126.828C244.106 127.949 243.763 129.938 243.474 132.795C243.22 135.652 243.058 139.377 242.985 143.969C242.117 145.452 241.322 145.344 240.599 143.644C240.562 139.557 240.49 136.176 240.382 133.5C240.273 130.824 240.11 128.835 239.893 127.533C239.46 124.893 238.592 123.555 237.29 123.519C235.952 123.519 234.885 124.948 234.089 127.805C233.258 130.698 232.787 133.645 232.679 136.646C232.607 138.165 232.552 139.539 232.516 140.769C232.48 141.962 232.462 142.993 232.462 143.861C231.666 145.416 230.871 145.542 230.075 144.241L229.967 119.668C230.039 118.438 230.455 117.824 231.214 117.824C231.974 117.86 232.353 118.33 232.353 119.234L232.408 126.123Z" fill="black"/>
</g>
<defs>
<filter id="filter0_f_167_2107" x="-12.1802" y="183.756" width="55.257" height="73.9038" filterUnits="userSpaceOnUse" color-interpolation-filters="sRGB">
<feFlood flood-opacity="0" result="BackgroundImageFix"/>
<feBlend mode="normal" in="SourceGraphic" in2="BackgroundImageFix" result="shape"/>
<feGaussianBlur stdDeviation="3.5065" result="effect1_foregroundBlur_167_2107"/>
</filter>
<filter id="filter1_f_167_2107" x="2.76193" y="116.633" width="29.803" height="85.2673" filterUnits="userSpaceOnUse" color-interpolation-filters="sRGB">
<feFlood flood-opacity="0" result="BackgroundImageFix"/>
<feBlend mode="normal" in="SourceGraphic" in2="BackgroundImageFix" result="shape"/>
<feGaussianBlur stdDeviation="1.68312" result="effect1_foregroundBlur_167_2107"/>
</filter>
<filter id="filter2_f_167_2107" x="-8.93265" y="55.0298" width="33.837" height="83.2781" filterUnits="userSpaceOnUse" color-interpolation-filters="sRGB">
<feFlood flood-opacity="0" result="BackgroundImageFix"/>
<feBlend mode="normal" in="SourceGraphic" in2="BackgroundImageFix" result="shape"/>
<feGaussianBlur stdDeviation="1.4026" result="effect1_foregroundBlur_167_2107"/>
</filter>
<filter id="filter3_f_167_2107" x="128.617" y="-9.7168" width="148.667" height="27.8888" filterUnits="userSpaceOnUse" color-interpolation-filters="sRGB">
<feFlood flood-opacity="0" result="BackgroundImageFix"/>
<feBlend mode="normal" in="SourceGraphic" in2="BackgroundImageFix" result="shape"/>
<feGaussianBlur stdDeviation="1.68312" result="effect1_foregroundBlur_167_2107"/>
</filter>
<filter id="filter4_i_167_2107" x="3.97925" y="0.0419617" width="271.13" height="247.604" filterUnits="userSpaceOnUse" color-interpolation-filters="sRGB">
<feFlood flood-opacity="0" result="BackgroundImageFix"/>
<feBlend mode="normal" in="SourceGraphic" in2="BackgroundImageFix" result="shape"/>
<feColorMatrix in="SourceAlpha" type="matrix" values="0 0 0 0 0 0 0 0 0 0 0 0 0 0 0 0 0 0 127 0" result="hardAlpha"/>
<feOffset dy="0.561041"/>
<feGaussianBlur stdDeviation="0.28052"/>
<feComposite in2="hardAlpha" operator="arithmetic" k2="-1" k3="1"/>
<feColorMatrix type="matrix" values="0 0 0 0 1 0 0 0 0 0.919444 0 0 0 0 0.6375 0 0 0 1 0"/>
<feBlend mode="normal" in2="shape" result="effect1_innerShadow_167_2107"/>
</filter>
<filter id="filter5_f_167_2107" x="60.4491" y="81.3606" width="204.87" height="139.641" filterUnits="userSpaceOnUse" color-interpolation-filters="sRGB">
<feFlood flood-opacity="0" result="BackgroundImageFix"/>
<feBlend mode="normal" in="SourceGraphic" in2="BackgroundImageFix" result="shape"/>
<feGaussianBlur stdDeviation="5.32989" result="effect1_foregroundBlur_167_2107"/>
</filter>
<filter id="filter6_f_167_2107" x="54.3113" y="86.0678" width="222.392" height="60.9015" filterUnits="userSpaceOnUse" color-interpolation-filters="sRGB">
<feFlood flood-opacity="0" result="BackgroundImageFix"/>
<feBlend mode="normal" in="SourceGraphic" in2="BackgroundImageFix" result="shape"/>
<feGaussianBlur stdDeviation="1.4026" result="effect1_foregroundBlur_167_2107"/>
</filter>
<filter id="filter7_f_167_2107" x="20.7084" y="147.273" width="40.2936" height="41.1775" filterUnits="userSpaceOnUse" color-interpolation-filters="sRGB">
<feFlood flood-opacity="0" result="BackgroundImageFix"/>
<feBlend mode="normal" in="SourceGraphic" in2="BackgroundImageFix" result="shape"/>
<feGaussianBlur stdDeviation="2.8052" result="effect1_foregroundBlur_167_2107"/>
</filter>
<filter id="filter8_f_167_2107" x="0.671834" y="68.1621" width="20.1129" height="35.1606" filterUnits="userSpaceOnUse" color-interpolation-filters="sRGB">
<feFlood flood-opacity="0" result="BackgroundImageFix"/>
<feBlend mode="normal" in="SourceGraphic" in2="BackgroundImageFix" result="shape"/>
<feGaussianBlur stdDeviation="2.1039" result="effect1_foregroundBlur_167_2107"/>
</filter>
<filter id="filter9_f_167_2107" x="55.7197" y="106.293" width="38.3304" height="34.5018" filterUnits="userSpaceOnUse" color-interpolation-filters="sRGB">
<feFlood flood-opacity="0" result="BackgroundImageFix"/>
<feBlend mode="normal" in="SourceGraphic" in2="BackgroundImageFix" result="shape"/>
<feGaussianBlur stdDeviation="2.1039" result="effect1_foregroundBlur_167_2107"/>
</filter>
<filter id="filter10_f_167_2107" x="57.3935" y="129.034" width="47.557" height="12.6767" filterUnits="userSpaceOnUse" color-interpolation-filters="sRGB">
<feFlood flood-opacity="0" result="BackgroundImageFix"/>
<feBlend mode="normal" in="SourceGraphic" in2="BackgroundImageFix" result="shape"/>
<feGaussianBlur stdDeviation="2.1039" result="effect1_foregroundBlur_167_2107"/>
</filter>
<filter id="filter11_f_167_2107" x="209.421" y="86.3785" width="47.6558" height="11.4494" filterUnits="userSpaceOnUse" color-interpolation-filters="sRGB">
<feFlood flood-opacity="0" result="BackgroundImageFix"/>
<feBlend mode="normal" in="SourceGraphic" in2="BackgroundImageFix" result="shape"/>
<feGaussianBlur stdDeviation="2.1039" result="effect1_foregroundBlur_167_2107"/>
</filter>
<filter id="filter12_f_167_2107" x="78.1962" y="84.15" width="207.951" height="153.974" filterUnits="userSpaceOnUse" color-interpolation-filters="sRGB">
<feFlood flood-opacity="0" result="BackgroundImageFix"/>
<feBlend mode="normal" in="SourceGraphic" in2="BackgroundImageFix" result="shape"/>
<feGaussianBlur stdDeviation="4.76885" result="effect1_foregroundBlur_167_2107"/>
</filter>
<filter id="filter13_f_167_2107" x="84.8327" y="206.304" width="53.4607" height="15.4382" filterUnits="userSpaceOnUse" color-interpolation-filters="sRGB">
<feFlood flood-opacity="0" result="BackgroundImageFix"/>
<feBlend mode="normal" in="SourceGraphic" in2="BackgroundImageFix" result="shape"/>
<feGaussianBlur stdDeviation="0.841561" result="effect1_foregroundBlur_167_2107"/>
</filter>
<filter id="filter14_f_167_2107" x="139.21" y="24.7125" width="32.0272" height="14.1924" filterUnits="userSpaceOnUse" color-interpolation-filters="sRGB">
<feFlood flood-opacity="0" result="BackgroundImageFix"/>
<feBlend mode="normal" in="SourceGraphic" in2="BackgroundImageFix" result="shape"/>
<feGaussianBlur stdDeviation="1.26234" result="effect1_foregroundBlur_167_2107"/>
</filter>
<filter id="filter15_f_167_2107" x="108.214" y="40.2869" width="22.3641" height="13.3942" filterUnits="userSpaceOnUse" color-interpolation-filters="sRGB">
<feFlood flood-opacity="0" result="BackgroundImageFix"/>
<feBlend mode="normal" in="SourceGraphic" in2="BackgroundImageFix" result="shape"/>
<feGaussianBlur stdDeviation="1.26234" result="effect1_foregroundBlur_167_2107"/>
</filter>
<linearGradient id="paint0_linear_167_2107" x1="138.16" y1="3.61693" x2="127.433" y2="235.958" gradientUnits="userSpaceOnUse">
<stop stop-color="#F6A902"/>
<stop offset="0.245101" stop-color="#F8B004"/>
<stop offset="0.279501" stop-color="#FED545"/>
<stop offset="1" stop-color="#FBE85D"/>
</linearGradient>
<linearGradient id="paint1_linear_167_2107" x1="138.16" y1="3.61693" x2="127.433" y2="235.958" gradientUnits="userSpaceOnUse">
<stop stop-color="#FCCC64"/>
<stop offset="0.213515" stop-color="#F8B004"/>
<stop offset="0.233724" stop-color="#FED545"/>
<stop offset="1" stop-color="#FBE85D"/>
</linearGradient>
<radialGradient id="paint2_radial_167_2107" cx="0" cy="0" r="1" gradientUnits="userSpaceOnUse" gradientTransform="translate(275.729 59.9671) rotate(100.047) scale(55.8681 62.3442)">
<stop stop-color="#FDB603"/>
<stop offset="0.12727" stop-color="#FBCB1F"/>
<stop offset="0.2223" stop-color="#FBCB1F" stop-opacity="0"/>
</radialGradient>
<linearGradient id="paint3_linear_167_2107" x1="158.556" y1="15.3419" x2="271.819" y2="1.95627" gradientUnits="userSpaceOnUse">
<stop stop-color="#F3960A"/>
<stop offset="1" stop-color="#F3960A" stop-opacity="0"/>
</linearGradient>
<linearGradient id="paint4_linear_167_2107" x1="267.069" y1="180.331" x2="93.6467" y2="245.638" gradientUnits="userSpaceOnUse">
<stop stop-color="#FFEB5A" stop-opacity="0"/>
<stop offset="0.381496" stop-color="#FFEB5A"/>
<stop offset="1" stop-color="#FFEB5A" stop-opacity="0"/>
</linearGradient>
<linearGradient id="paint5_linear_167_2107" x1="273.954" y1="96.6094" x2="36.6433" y2="141.375" gradientUnits="userSpaceOnUse">
<stop offset="0.0766277" stop-color="#FAB604" stop-opacity="0"/>
<stop offset="0.188377" stop-color="#F09711"/>
<stop offset="0.368393" stop-color="#EFBD37" stop-opacity="0.04"/>
<stop offset="0.532351" stop-color="#EFCD47" stop-opacity="0"/>
<stop offset="0.659125" stop-color="#F1BA41" stop-opacity="0.26"/>
<stop offset="0.758367" stop-color="#F3AA3D"/>
<stop offset="0.875911" stop-color="#EBB541" stop-opacity="0.27"/>
<stop offset="1" stop-color="#E2C146" stop-opacity="0"/>
</linearGradient>
<radialGradient id="paint6_radial_167_2107" cx="0" cy="0" r="1" gradientUnits="userSpaceOnUse" gradientTransform="translate(35.7578 138.725) rotate(78.6346) scale(59.7531 59.6421)">
<stop offset="0.478586" stop-color="#EA9309" stop-opacity="0"/>
<stop offset="0.795277" stop-color="#CA7C07"/>
</radialGradient>
<radialGradient id="paint7_radial_167_2107" cx="0" cy="0" r="1" gradientUnits="userSpaceOnUse" gradientTransform="translate(24.7997 56.9371) rotate(47.7324) scale(105.783 82.1195)">
<stop offset="0.713072" stop-color="#FBD53B" stop-opacity="0"/>
<stop offset="1" stop-color="#BA9616"/>
</radialGradient>
<linearGradient id="paint8_linear_167_2107" x1="217.369" y1="93.4819" x2="257.198" y2="92.8198" gradientUnits="userSpaceOnUse">
<stop stop-color="white"/>
<stop offset="1" stop-color="white" stop-opacity="0"/>
</linearGradient>
<linearGradient id="paint9_linear_167_2107" x1="262.871" y1="282.243" x2="173.399" y2="50.9027" gradientUnits="userSpaceOnUse">
<stop offset="0.0605103" stop-color="white" stop-opacity="0"/>
<stop offset="0.48874" stop-color="#FAD336"/>
<stop offset="1" stop-color="white" stop-opacity="0"/>
</linearGradient>
<linearGradient id="paint10_linear_167_2107" x1="60.7799" y1="217.847" x2="154.321" y2="207.876" gradientUnits="userSpaceOnUse">
<stop offset="0.0605103" stop-color="white" stop-opacity="0"/>
<stop offset="0.510417" stop-color="#ECA504"/>
<stop offset="1" stop-color="white" stop-opacity="0"/>
</linearGradient>
</defs>
</svg>
