<svg width="109" height="180" viewBox="0 0 109 180" fill="none" xmlns="http://www.w3.org/2000/svg">
<circle cx="46.3867" cy="50.2524" r="27" fill="#FCFF61"/>
<path d="M60.1033 96.2524C62.6608 105.211 60.4733 96.4615 62.6608 105.211C63.7931 109.74 64.0298 114.338 64.0702 118.993C64.1213 124.866 64.8757 130.687 64.8757 136.577C64.8757 141.662 64.59 146.837 65.077 151.903C65.5782 157.115 65.3289 162.024 65.2784 167.228C65.2536 169.776 64.3258 173.258 65.077 175.662C65.3457 176.522 65.2784 178.428 65.2784 176.49" stroke="#67DE53" stroke-width="3" stroke-linecap="round"/>
<path d="M66.0837 119.306C71.6935 120.62 75.739 121.699 81.297 120.111C83.6064 119.452 85.7092 118.226 87.9193 117.292C92.1203 115.519 95.6453 110.592 97.3157 106.509C98.3985 103.862 99.5082 100.823 99.5082 97.9626" stroke="#67DE53" stroke-width="3" stroke-linecap="round"/>
<path d="M64.4728 120.514C59.3935 118.532 56.3286 118.591 52.3917 122.528C49.7465 125.173 46.8932 128.004 45.2325 131.387C43.5458 134.823 42.1039 138.417 40.6237 141.947C39.6179 144.345 38.6997 149.509 38.6997 149.509" stroke="#67DE53" stroke-width="3" stroke-linecap="round"/>
<path d="M39.1025 149.509C35.8686 152.538 27.2888 162.71 30.422 159.576C33.3315 156.667 35.9179 153.062 38.6551 149.934C38.8395 149.723 39.5052 148.312 39.5052 149.285C39.5052 151.463 38.7922 153.775 38.4985 155.93C38.2921 157.443 37.031 160.723 37.5812 162.216C37.7121 162.572 37.9406 159.795 37.9839 159.487C38.4761 155.987 39.2971 152.644 39.5052 149.106C39.5654 148.083 40.6334 149.604 40.7581 149.777C42.3807 152.031 43.3499 154.297 44.3153 156.892C46.1367 161.787 44.8033 157.24 43.9126 155.124C43.4764 154.088 40.4276 148.158 40.7133 148.301" stroke="#67DE53" stroke-width="3" stroke-linecap="round"/>
<path d="M40.3105 148.301C43.4045 148.333 46.8727 148.146 49.9083 148.905C51.5077 149.305 49.3819 148.99 48.9239 148.905C47.006 148.55 45.1326 148.77 43.219 149.017C42.1675 149.152 41.5605 149.383 41.9214 148.301" stroke="#67DE53" stroke-width="3" stroke-linecap="round"/>
<path d="M65.6809 174.074C70.4656 166.545 75.2486 158.986 79.7756 151.299C80.0886 150.767 81.9318 145.282 82.1023 145.258C82.1607 145.25 81.5998 146.542 81.5878 146.578C81.0621 148.155 80.659 149.795 80.1783 151.388C78.7701 156.055 77.918 161.029 76.1512 165.572C75.6059 166.975 69.5927 180.581 66.3969 177.385C64.3454 175.333 63.2737 172.477 61.5644 170.136C59.6052 167.453 57.1606 165.047 55.1211 162.395C54.677 161.818 52.4946 158.816 51.81 158.816C50.16 158.816 56.6169 170.562 57.0228 171.232C57.9111 172.7 60.0012 178.927 62.4593 177.698" stroke="#67DE53" stroke-width="3" stroke-linecap="round"/>
<path d="M99.2019 98.1728C98.9333 95.0835 98.9048 91.4477 98.0444 88.4364C97.6538 87.069 98.0291 85.5658 97.6529 84.2491C97.4878 83.6711 97.1933 80.4526 97.3806 81.9512C97.7812 85.1563 98.8061 88.5185 98.8955 91.7386C98.9521 93.7759 99.5083 95.7181 99.5083 97.7983C99.5083 98.0722 99.4902 99.3993 99.5083 99.0919C99.6479 96.7178 100.645 94.0721 101.193 91.7556C101.988 88.4029 103.491 84.7692 103.491 81.3214C103.491 80.9349 103.812 79.543 103.798 79.7894C103.675 81.876 102.601 84.4497 102.113 86.513C101.643 88.4958 101.666 90.4462 100.887 92.3514C100.482 93.341 100.121 94.7956 100.121 95.8748C100.121 96.7072 99.8147 97.4905 99.8147 98.2919C99.8147 98.8664 100.411 97.3001 100.802 96.8791C101.913 95.6827 102.891 94.2567 103.798 92.8961C103.87 92.787 105.193 90.9556 105.023 90.9556C104.703 90.9556 103.293 93.3573 103.117 93.645C102.416 94.787 101.704 96.0717 100.904 97.1004C100.384 97.7696 101.97 96.9203 102.283 96.811C103.212 96.4857 104.831 95.7216 105.789 95.7216C106.329 95.7216 107.827 95.1089 107.287 95.1089C105.716 95.1089 104.144 95.1089 102.572 95.1089C100.389 95.1089 99.3507 96.1321 97.5168 96.9472C94.8383 98.1376 98.3135 97.1921 98.8955 96.028" stroke="#67DE53" stroke-width="3" stroke-linecap="round"/>
<path d="M31.6412 54.9103C31.0809 53.5235 30.795 51.8046 31.7274 50.4777C32.4249 49.485 33.3972 48.5617 34.6764 48.3722C36.0352 48.1709 37.3055 47.7637 38.678 48.3229C39.2653 48.5622 39.8584 48.8672 40.2603 49.3695C40.4234 49.5734 40.989 49.8128 40.7281 49.8128" stroke="black" stroke-width="3" stroke-linecap="round"/>
<path d="M51.3664 45.1585C51.0397 43.5059 50.7185 42.2239 51.4218 40.6766C51.9047 39.6143 52.8959 39.0264 53.9214 38.565C55.2254 37.9782 56.3075 38.0557 57.6829 38.2633C58.4942 38.3858 59.1923 38.6412 59.9855 38.8174C60.4832 38.928 60.6292 39.3178 61.0074 39.5069" stroke="black" stroke-width="3" stroke-linecap="round"/>
<path d="M43.5759 56.3813C44.6491 56.9051 46.7019 57.888 48.0366 57.4925C48.9081 57.2343 50.165 56.8515 50.7193 56.0638C51.2879 55.2558 52.1859 54.5683 52.5448 53.6351C52.6759 53.2942 52.9877 51.8446 52.8623 52.0953" stroke="black" stroke-width="3" stroke-linecap="round"/>
<path d="M42.0221 22.6855C34.5954 19.2853 35.7139 7.30494 42.4069 3.58662C45.583 1.82213 48.5108 1.5464 52.0276 2.67444C55.0559 3.64578 57.0143 6.56363 58.0566 9.45881C58.5943 10.9526 59.1752 12.1503 59.2111 13.7632C59.246 15.3362 59.2452 16.8088 59.2111 18.3811C59.1862 19.5247 58.9136 23.8491 57.2869 24.2105C55.7752 24.5465 54.5804 24.3387 54.137 22.6285C53.8327 21.4546 55.357 19.1966 55.8759 18.1958C56.7504 16.5092 57.786 15.0709 58.9545 13.5779C61.544 10.2691 65.0753 8.95906 69.1596 8.37559C72.4042 7.91207 77.6655 8.28882 79.3361 11.782C82.7513 18.9229 80.229 27.7163 75.2598 33.5889C74.3558 34.6573 72.8173 35.8876 71.269 35.1995C69.1236 34.246 68.5216 32.7407 70.6276 30.9094C71.894 29.8082 73.2123 29.1352 74.8607 28.8997C76.745 28.6306 80.6479 28.2353 82.2437 29.3558C83.5242 30.2549 84.8226 30.9903 85.8782 32.1779C86.9234 33.3538 87.5643 34.5072 88.458 35.7839C90.0033 37.9915 90.5104 41.4857 90.5104 44.1076C90.5104 47.4326 89.2149 50.5791 87.6883 53.4717C86.4267 55.8621 83.2244 59.0246 80.5049 59.6289C77.7083 60.2504 76.5885 60.1123 74.5472 58.1466C73.0675 56.7218 73.7403 55.2551 75.6446 54.3981C77.048 53.7666 78.7787 54.986 79.9918 55.5811C81.3112 56.2284 82.4841 57.348 83.3269 58.5457C85.2145 61.228 86.168 64.9714 86.3913 68.2092C86.5304 70.2264 85.9704 71.4922 84.6097 72.9696C83.5108 74.1627 83.1945 75.8068 82.2437 77.0745C80.1329 79.8889 74.5445 80.7215 71.2832 80.3954C68.616 80.1287 65.0917 79.0755 62.8598 77.5876C61.3699 76.5943 59.9807 75.2612 59.9807 73.3545C59.9807 71.6607 63.2455 72.016 64.0285 72.7701C66.3204 74.9771 67.6498 77.2533 67.4065 80.5379C67.1455 84.061 66.6667 86.9975 64.9122 90.1016C64.1763 91.4036 63.6273 92.8039 62.418 93.7503C61.2079 94.6973 60.0166 96.5111 58.4271 96.829C55.1194 97.4905 52.121 98.7402 48.6924 98.1687C45.0977 97.5696 41.6468 95.962 38.7439 93.7503C36.6563 92.1597 35.8413 90.174 34.9812 87.7499C33.4611 83.4661 35.1315 77.5938 39.8414 76.5471C42.3694 75.9853 44.0742 80.0727 44.5306 81.949C45.2695 84.9867 41.5414 86.4616 39.4566 87.7356C36.5516 89.5109 33.183 91.6228 29.6506 91.6979C27.7942 91.7374 25.9043 92.0819 24.0635 91.8262C21.8632 91.5206 20.459 90.7 18.6759 89.4032C17.4051 88.479 15.8737 88.0276 15.0841 86.5669C14.6161 85.701 14.2852 84.7421 13.7871 83.9016C13.2811 83.0477 12.4581 82.4836 12.0055 81.5784C10.119 77.8052 10.1704 73.092 12.6469 69.663C13.6708 68.2453 16.3046 66.0454 18.2198 66.6129C19.2203 66.9093 20.2459 66.6641 21.2414 66.9407C22.5756 67.3113 22.7601 67.818 23.6786 68.7365C24.8173 69.8753 25.7196 72.7216 23.6074 73.4257C21.5298 74.1182 18.4197 73.2262 16.2386 73.2262C15.5283 73.2262 14.963 73.0899 14.3002 72.8414C13.2779 72.458 12.284 72.5742 11.2359 72.3995C9.38471 72.091 7.24136 70.8743 5.84828 69.6915C2.24164 66.6292 2 62.6035 2 58.2037C2 51.9879 10.0431 46.799 15.5402 50.1365C17.0705 51.0656 19.7021 52.6009 19.7021 54.6119C19.7021 57.3193 15.7525 54.6868 15.0271 53.7282C13.7164 51.9962 12.5707 50.0645 11.0933 48.4689C9.28066 46.5112 7.16894 44.535 5.86253 42.1834C2.90352 36.8572 4.4676 30.8111 8.9269 26.8473C11.8059 24.2882 18.0991 23.0314 21.1131 26.2772C21.9975 27.2296 23.116 27.8267 24.0064 28.7857C24.758 29.5951 24.5766 30.5772 24.5766 31.6078C24.5766 33.1459 23.9973 35.1224 22.011 33.8455C20.7848 33.0572 20.1021 31.0937 19.5025 29.8119C18.4939 27.6556 16.8399 26.2418 16.0533 23.9112C14.6965 19.8909 13.7338 14.1024 15.9963 10.2427C18.128 6.60638 22.0279 4.09857 26.1729 3.64363C28.7687 3.35873 31.3157 3.28733 33.8267 4.09972C36.1687 4.85742 37.6572 6.25672 39.5991 7.66294C42.7367 9.93499 45.5604 12.7308 46.8966 16.5282C47.6051 18.5421 48.9095 23.1027 46.1269 24.0965C45.2066 24.4252 42.7254 24.0922 42.2786 23.1986" stroke="#FF5977" stroke-width="3" stroke-linecap="round"/>
<path d="M62.8027 48.5972C57.4111 52.47 63.9777 49.5191 62.6459 48.4832C61.2417 47.3911 60.2767 49.7408 60.8643 50.7921C61.5077 51.9435 63.65 48.7484 61.3916 48.4974C60.9283 48.446 60.4881 52.7475 62.7456 50.5926C64.4664 48.95 61.7167 47.5775 61.1351 48.6115C60.5231 49.6994 60.4859 52.2439 62.4891 51.1057C64.0471 50.2205 63.9258 47.6568 61.7907 47.8703C60.9588 47.9535 60.5568 48.9293 60.4367 49.6234C60.2334 50.7977 60.7154 50.9062 61.7765 50.9062" stroke="#F7BEC8" stroke-width="3" stroke-linecap="round"/>
<path d="M37.6608 60.3986C38.38 59.7308 39.5147 58.6411 37.9458 58.1182C37.109 57.8392 36.7387 58.4301 36.5205 59.1159C36.2942 59.8271 36.732 61.2624 37.7748 60.8832C38.3929 60.6585 38.3302 58.9411 37.8603 58.6028C37.1134 58.065 37.1264 58.9556 37.4042 59.3724" stroke="#F7BEC8" stroke-width="3" stroke-linecap="round"/>
</svg>
